<?xml version="1.0" encoding="UTF-8"?>
<svg xmlns="http://www.w3.org/2000/svg" xmlns:xlink="http://www.w3.org/1999/xlink" width="100px" height="100px" viewBox="0 0 100 100" version="1.1">
<g id="surface1">
<path style=" stroke:none;fill-rule:nonzero;fill:rgb(0%,0%,0%);fill-opacity:1;" d="M 68.113281 14.445312 C 67.988281 14.484375 67.847656 14.585938 67.785156 14.65625 C 67.734375 14.738281 67.03125 16.292969 66.222656 18.132812 C 65.429688 19.960938 64.347656 22.445312 63.828125 23.640625 C 63.304688 24.832031 61.398438 29.195312 59.59375 33.335938 C 57.785156 37.480469 56.101562 41.328125 55.855469 41.882812 C 55.335938 43.085938 55.285156 43.53125 55.664062 43.894531 C 56.144531 44.378906 56.082031 44.398438 61.9375 41.871094 C 62.753906 41.519531 64.449219 40.792969 65.714844 40.257812 C 66.980469 39.722656 68.835938 38.921875 69.847656 38.488281 C 70.855469 38.054688 74.582031 36.46875 78.113281 34.953125 C 85.886719 31.628906 85.183594 31.960938 85.367188 31.589844 C 85.59375 31.175781 85.511719 30.863281 84.765625 29.398438 C 81.714844 23.375 77.222656 18.78125 71.253906 15.558594 C 69.195312 14.445312 68.613281 14.242188 68.113281 14.445312 Z M 70.03125 17.082031 C 74.664062 19.394531 79.082031 23.496094 81.804688 28.03125 C 82.765625 29.628906 83.234375 30.589844 83.113281 30.691406 C 82.980469 30.800781 80.296875 31.953125 80.265625 31.902344 C 80.253906 31.890625 80.019531 31.457031 79.753906 30.960938 C 79.152344 29.851562 77.9375 27.992188 77.164062 27.03125 C 74.847656 24.125 71.5625 21.4375 68.355469 19.851562 C 68.050781 19.699219 67.785156 19.558594 67.765625 19.539062 C 67.746094 19.515625 67.9375 19.03125 68.195312 18.464844 C 68.449219 17.890625 68.722656 17.253906 68.816406 17.042969 C 68.898438 16.839844 69.019531 16.667969 69.082031 16.667969 C 69.144531 16.667969 69.5625 16.859375 70.03125 17.082031 Z M 68.460938 22.09375 C 71.929688 24.101562 74.644531 26.589844 76.671875 29.628906 C 77.417969 30.75 78.5 32.628906 78.4375 32.699219 C 78.398438 32.730469 75.722656 33.882812 69.644531 36.488281 C 60.195312 40.53125 58.335938 41.316406 58.296875 41.277344 C 58.253906 41.238281 58.855469 39.832031 63.796875 28.539062 C 65.429688 24.8125 66.796875 21.667969 66.847656 21.546875 C 66.960938 21.253906 67.113281 21.316406 68.460938 22.09375 Z M 68.460938 22.09375 "/>
<path style=" stroke:none;fill-rule:nonzero;fill:rgb(0%,0%,0%);fill-opacity:1;" d="M 67.886719 26.738281 C 67.550781 26.800781 67.246094 27.246094 67.246094 27.667969 C 67.246094 28.042969 67.347656 28.234375 67.652344 28.46875 C 67.878906 28.617188 70.96875 29.125 71.277344 29.054688 C 71.929688 28.890625 72.164062 28.042969 71.703125 27.527344 C 71.5 27.296875 71.304688 27.226562 70.101562 27.011719 C 68.335938 26.710938 68.164062 26.691406 67.886719 26.738281 Z M 67.886719 26.738281 "/>
<path style=" stroke:none;fill-rule:nonzero;fill:rgb(0%,0%,0%);fill-opacity:1;" d="M 66.019531 31.984375 C 65.09375 32.761719 65.222656 34.105469 66.296875 34.570312 C 68.0625 35.335938 69.355469 32.742188 67.652344 31.871094 C 67.488281 31.792969 67.132812 31.71875 66.847656 31.71875 C 66.449219 31.71875 66.277344 31.78125 66.019531 31.984375 Z M 66.019531 31.984375 "/>
<path style=" stroke:none;fill-rule:nonzero;fill:rgb(0%,0%,0%);fill-opacity:1;" d="M 43.519531 21.992188 C 43.296875 22.011719 42.449219 22.113281 41.632812 22.222656 C 36.46875 22.941406 31.367188 25.042969 27.113281 28.214844 C 20.847656 32.890625 16.449219 39.894531 15.050781 47.417969 C 13.355469 56.550781 15.664062 65.683594 21.488281 72.9375 C 22.355469 74.007812 24.96875 76.613281 26.121094 77.542969 C 35 84.746094 47.222656 86.625 57.898438 82.414062 C 67.214844 78.746094 74.285156 70.84375 76.828125 61.300781 C 78.550781 54.792969 78.132812 48.003906 75.621094 41.578125 C 75.277344 40.691406 75.011719 40.347656 74.59375 40.257812 C 74.296875 40.195312 73.652344 40.449219 66.9375 43.335938 C 65.621094 43.902344 64.246094 44.5 63.878906 44.652344 C 63.511719 44.800781 61.519531 45.660156 59.4375 46.550781 C 57.367188 47.4375 54.113281 48.824219 52.222656 49.632812 C 50.328125 50.449219 48.644531 51.175781 48.460938 51.269531 C 48.285156 51.359375 48.132812 51.417969 48.113281 51.398438 C 48.09375 51.378906 48.277344 50.914062 48.519531 50.359375 C 48.988281 49.269531 54.898438 35.742188 56.5 32.074219 C 57.03125 30.851562 57.855469 28.960938 58.335938 27.882812 C 59.40625 25.457031 59.417969 25.425781 59.234375 24.992188 C 59.070312 24.589844 58.621094 24.355469 56.835938 23.710938 C 54.511719 22.882812 51.847656 22.304688 49.09375 22.023438 C 48.132812 21.929688 44.5 21.910156 43.519531 21.992188 Z M 50.664062 24.132812 C 52.949219 24.496094 56.796875 25.546875 57 25.871094 C 57.050781 25.960938 55.988281 28.539062 55.828125 28.71875 C 55.785156 28.761719 55.378906 28.648438 54.90625 28.488281 C 52.53125 27.628906 50.050781 27.183594 47.09375 27.105469 C 44.5 27.03125 43.144531 27.144531 40.886719 27.589844 C 33.234375 29.09375 26.46875 34.085938 22.816406 40.914062 C 18.855469 48.328125 18.664062 57.085938 22.304688 64.601562 C 25.878906 71.996094 32.929688 77.421875 41.019531 78.988281 C 43.050781 79.382812 43.886719 79.453125 46.277344 79.441406 C 48.132812 79.433594 48.90625 79.390625 50.019531 79.21875 C 52.878906 78.777344 55.347656 78.019531 57.804688 76.816406 C 65.277344 73.1875 70.511719 66.460938 72.183594 58.339844 C 72.480469 56.894531 72.652344 55.046875 72.652344 53.238281 C 72.652344 50.148438 72.246094 47.679688 71.277344 44.8125 C 71.082031 44.246094 70.960938 43.761719 71 43.722656 C 71.101562 43.628906 73.703125 42.53125 73.828125 42.53125 C 73.96875 42.53125 74.816406 45.066406 75.144531 46.46875 C 75.765625 49.144531 75.960938 51.148438 75.886719 54.097656 C 75.796875 57.835938 75.121094 61.027344 73.746094 64.351562 C 67.570312 79.230469 50.621094 86.503906 35.53125 80.753906 C 31.5625 79.242188 28.296875 77.117188 25.144531 74.007812 C 20.417969 69.320312 17.613281 63.683594 16.664062 56.976562 C 16.449219 55.417969 16.417969 51.347656 16.621094 49.902344 C 17.132812 46.09375 18.0625 43.09375 19.695312 39.902344 C 21.671875 36.054688 24.488281 32.691406 28.011719 29.972656 C 32.214844 26.730469 37.285156 24.679688 42.753906 23.992188 C 44.570312 23.769531 48.804688 23.851562 50.664062 24.132812 Z M 50.304688 29.277344 C 52.152344 29.621094 55 30.425781 55 30.597656 C 55 30.640625 54.511719 31.78125 53.917969 33.144531 C 53.328125 34.5 52.4375 36.539062 51.9375 37.679688 C 51.449219 38.820312 49.90625 42.335938 48.519531 45.507812 C 44.847656 53.882812 45.164062 53.105469 45.296875 53.550781 C 45.429688 53.976562 45.96875 54.308594 46.355469 54.1875 C 46.601562 54.117188 49.519531 52.882812 55.304688 50.410156 C 57.40625 49.511719 59.429688 48.640625 59.796875 48.488281 C 60.164062 48.339844 61.855469 47.609375 63.570312 46.875 C 68.355469 44.824219 69 44.550781 69.082031 44.550781 C 69.164062 44.550781 69.796875 46.460938 70.050781 47.4375 C 70.816406 50.46875 70.929688 54.5 70.347656 57.671875 C 69.46875 62.410156 67.050781 66.945312 63.570312 70.410156 C 60.40625 73.5625 56.164062 75.917969 51.835938 76.917969 C 49.796875 77.390625 48.582031 77.523438 46.171875 77.523438 C 43.785156 77.523438 42.570312 77.390625 40.5625 76.925781 C 33.480469 75.28125 27.417969 70.492188 24.183594 63.996094 C 23.019531 61.671875 22.277344 59.320312 21.878906 56.722656 C 21.621094 55.054688 21.613281 51.449219 21.867188 49.804688 C 22.253906 47.339844 22.96875 45.035156 24.039062 42.84375 C 25.296875 40.257812 26.765625 38.175781 28.703125 36.226562 C 32.582031 32.347656 37.480469 29.921875 43.011719 29.144531 C 44.539062 28.933594 48.867188 29.011719 50.304688 29.277344 Z M 50.304688 29.277344 "/>
<path style=" stroke:none;fill-rule:nonzero;fill:rgb(0%,0%,0%);fill-opacity:1;" d="M 40.835938 33.335938 C 39.804688 33.550781 38.878906 34.285156 38.449219 35.234375 C 38.144531 35.914062 38.132812 37.15625 38.4375 37.800781 C 38.746094 38.46875 39.417969 39.144531 40.09375 39.46875 C 40.570312 39.710938 40.785156 39.75 41.480469 39.75 C 42.164062 39.742188 42.386719 39.699219 42.855469 39.457031 C 44.621094 38.578125 45.246094 36.640625 44.304688 34.921875 C 43.671875 33.761719 42.171875 33.074219 40.835938 33.335938 Z M 42.195312 35.417969 C 42.765625 35.792969 42.96875 36.742188 42.582031 37.257812 C 42.050781 37.972656 41.203125 38.042969 40.539062 37.449219 C 39.378906 36.386719 40.867188 34.558594 42.195312 35.417969 Z M 42.195312 35.417969 "/>
<path style=" stroke:none;fill-rule:nonzero;fill:rgb(0%,0%,0%);fill-opacity:1;" d="M 30.734375 40.15625 C 30.46875 40.378906 30.40625 40.5 30.40625 40.832031 C 30.40625 41.386719 30.835938 41.824219 31.398438 41.824219 C 31.613281 41.824219 32.5625 41.871094 33.5 41.921875 C 34.96875 42.003906 35.265625 42.003906 35.511719 41.871094 C 36.101562 41.570312 36.203125 40.882812 35.734375 40.417969 C 35.429688 40.105469 35.316406 40.09375 32.347656 39.945312 L 31.0625 39.882812 Z M 30.734375 40.15625 "/>
<path style=" stroke:none;fill-rule:nonzero;fill:rgb(0%,0%,0%);fill-opacity:1;" d="M 41.070312 44.417969 C 40.488281 44.558594 39.898438 45.316406 39.898438 45.933594 C 39.898438 46.339844 40.214844 46.882812 40.613281 47.144531 C 41.019531 47.429688 41.796875 47.460938 42.253906 47.226562 C 42.917969 46.882812 43.164062 45.894531 42.777344 45.15625 C 42.480469 44.601562 41.714844 44.265625 41.070312 44.417969 Z M 41.070312 44.417969 "/>
<path style=" stroke:none;fill-rule:nonzero;fill:rgb(0%,0%,0%);fill-opacity:1;" d="M 29.714844 48.984375 C 28.03125 49.5625 27.121094 51.511719 27.753906 53.175781 C 28.070312 54.003906 28.828125 54.753906 29.644531 55.054688 C 30.886719 55.511719 32.347656 55.175781 33.195312 54.257812 C 33.878906 53.511719 34.03125 53.105469 34.03125 52.027344 C 34.03125 51.148438 34 51.015625 33.722656 50.519531 C 32.929688 49.097656 31.265625 48.449219 29.714844 48.984375 Z M 31.429688 50.863281 C 32.101562 51.207031 32.367188 52.074219 31.980469 52.734375 C 31.460938 53.601562 30.121094 53.539062 29.644531 52.632812 C 29.0625 51.511719 30.296875 50.289062 31.429688 50.863281 Z M 31.429688 50.863281 "/>
<path style=" stroke:none;fill-rule:nonzero;fill:rgb(0%,0%,0%);fill-opacity:1;" d="M 63.234375 48.996094 C 63.09375 49.105469 62.949219 49.339844 62.90625 49.511719 C 62.777344 50.085938 63 50.347656 64.316406 51.175781 C 65.746094 52.074219 66.164062 52.195312 66.570312 51.792969 C 66.898438 51.460938 66.988281 51.085938 66.835938 50.710938 C 66.746094 50.480469 66.378906 50.195312 65.417969 49.601562 C 64.03125 48.730469 63.695312 48.640625 63.234375 48.996094 Z M 63.234375 48.996094 "/>
<path style=" stroke:none;fill-rule:nonzero;fill:rgb(0%,0%,0%);fill-opacity:1;" d="M 40.296875 50.863281 C 38.816406 51.105469 38.570312 51.1875 38.328125 51.539062 C 38.082031 51.882812 38.121094 52.289062 38.449219 52.640625 C 38.703125 52.925781 38.796875 52.964844 39.246094 52.945312 C 40.121094 52.925781 42.460938 52.460938 42.671875 52.257812 C 43.367188 51.640625 42.90625 50.589844 41.96875 50.621094 C 41.816406 50.632812 41.0625 50.734375 40.296875 50.863281 Z M 40.296875 50.863281 "/>
<path style=" stroke:none;fill-rule:nonzero;fill:rgb(0%,0%,0%);fill-opacity:1;" d="M 60.449219 55.664062 C 58.164062 56.398438 57.480469 59.328125 59.195312 61.027344 C 60.804688 62.621094 63.5625 62.105469 64.519531 60.027344 C 64.855469 59.289062 64.835938 58.117188 64.460938 57.371094 C 63.714844 55.855469 62.039062 55.148438 60.449219 55.664062 Z M 62.316406 57.691406 C 63.03125 58.359375 63.019531 59.21875 62.296875 59.785156 C 61.878906 60.105469 61.5 60.148438 60.96875 59.914062 C 60.59375 59.753906 60.460938 59.621094 60.296875 59.257812 C 59.980469 58.550781 60.214844 57.925781 60.96875 57.492188 C 61.285156 57.308594 62.011719 57.421875 62.316406 57.691406 Z M 62.316406 57.691406 "/>
<path style=" stroke:none;fill-rule:nonzero;fill:rgb(0%,0%,0%);fill-opacity:1;" d="M 52.613281 55.761719 C 51.917969 55.976562 51.4375 56.792969 51.570312 57.511719 C 51.714844 58.238281 52.316406 58.691406 53.152344 58.691406 C 54.222656 58.691406 54.898438 57.582031 54.449219 56.53125 C 54.183594 55.90625 53.316406 55.542969 52.613281 55.761719 Z M 52.613281 55.761719 "/>
<path style=" stroke:none;fill-rule:nonzero;fill:rgb(0%,0%,0%);fill-opacity:1;" d="M 27.847656 58.078125 C 27.253906 58.664062 27.4375 59.054688 29.46875 61.449219 C 29.878906 61.9375 30.304688 62.378906 30.40625 62.429688 C 31 62.742188 31.734375 62.320312 31.734375 61.671875 C 31.734375 61.472656 31.683594 61.207031 31.621094 61.085938 C 31.386719 60.671875 29.265625 58.136719 29 57.964844 C 28.59375 57.691406 28.195312 57.734375 27.847656 58.078125 Z M 27.847656 58.078125 "/>
<path style=" stroke:none;fill-rule:nonzero;fill:rgb(0%,0%,0%);fill-opacity:1;" d="M 45.746094 58.824219 C 45.429688 58.996094 43.070312 61.117188 42.949219 61.328125 C 42.898438 61.429688 42.855469 61.664062 42.855469 61.855469 C 42.855469 62.492188 43.632812 62.925781 44.214844 62.613281 C 44.621094 62.410156 46.960938 60.269531 47.050781 60.027344 C 47.214844 59.601562 47.152344 59.289062 46.847656 58.984375 C 46.519531 58.671875 46.132812 58.613281 45.746094 58.824219 Z M 45.746094 58.824219 "/>
<path style=" stroke:none;fill-rule:nonzero;fill:rgb(0%,0%,0%);fill-opacity:1;" d="M 35.601562 62.066406 C 34.878906 62.5625 34.722656 63.601562 35.277344 64.257812 C 35.785156 64.855469 36.46875 65.007812 37.144531 64.671875 C 37.96875 64.269531 38.246094 63.085938 37.683594 62.421875 C 37.144531 61.792969 36.246094 61.644531 35.601562 62.066406 Z M 35.601562 62.066406 "/>
<path style=" stroke:none;fill-rule:nonzero;fill:rgb(0%,0%,0%);fill-opacity:1;" d="M 47.828125 65.167969 C 46.011719 65.59375 44.855469 67.453125 45.347656 69.148438 C 45.753906 70.523438 46.765625 71.402344 48.152344 71.582031 C 50.355469 71.867188 52.277344 69.683594 51.695312 67.550781 C 51.378906 66.410156 50.519531 65.550781 49.347656 65.207031 C 48.785156 65.035156 48.40625 65.035156 47.828125 65.167969 Z M 48.949219 67.085938 C 49.929688 67.453125 50.164062 68.683594 49.378906 69.339844 C 48.734375 69.875 47.855469 69.722656 47.367188 68.996094 C 46.9375 68.371094 47.214844 67.53125 47.96875 67.160156 C 48.367188 66.945312 48.550781 66.9375 48.949219 67.085938 Z M 48.949219 67.085938 "/>
<path style=" stroke:none;fill-rule:nonzero;fill:rgb(0%,0%,0%);fill-opacity:1;" d="M 56.785156 65.480469 C 56.5625 65.734375 56.519531 65.875 56.5625 66.148438 C 56.632812 66.53125 58.253906 69.371094 58.582031 69.664062 C 58.917969 69.964844 59.5625 69.917969 59.855469 69.574219 C 60.265625 69.097656 60.195312 68.792969 59.234375 67.128906 C 58.246094 65.402344 58.019531 65.15625 57.449219 65.15625 C 57.132812 65.15625 57.011719 65.21875 56.785156 65.480469 Z M 56.785156 65.480469 "/>
<path style=" stroke:none;fill-rule:nonzero;fill:rgb(0%,0%,0%);fill-opacity:1;" d="M 36.265625 68.792969 C 35.9375 68.925781 35.714844 69.300781 35.714844 69.695312 C 35.714844 70.097656 36.828125 72.140625 37.171875 72.382812 C 37.398438 72.542969 38.03125 72.582031 38.222656 72.453125 C 38.4375 72.308594 38.671875 71.875 38.671875 71.644531 C 38.671875 71.359375 37.550781 69.21875 37.265625 68.964844 C 37.03125 68.753906 36.550781 68.671875 36.265625 68.792969 Z M 36.265625 68.792969 "/>
</g>
</svg>
