<svg width="24" height="24" viewBox="0 0 24 24" fill="none" xmlns="http://www.w3.org/2000/svg">
<path d="M0.504451 3.39073C0.161524 3.59239 0 3.9735 0 4.37132V21.0322C0 21.6489 0.778164 22.1219 1.37039 21.95C2.31131 21.6768 3.79575 21.4091 6 21.4091C8.50846 21.4091 10.0847 21.7558 10.9886 22.0627C11.6157 22.2756 12.3843 22.2756 13.0114 22.0627C13.9153 21.7558 15.4915 21.4091 18 21.4091C20.2043 21.4091 21.6887 21.6768 22.6296 21.95C23.2218 22.1219 24 21.6489 24 21.0322V4.37132C24 3.9735 23.8385 3.59239 23.4956 3.39073C22.7409 2.94697 21.0674 2.25 18 2.25C15.0757 2.25 13.4183 2.88343 12.6162 3.32703C12.2537 3.52749 11.7463 3.52749 11.3838 3.32703C10.5817 2.88343 8.92425 2.25 6 2.25C2.93257 2.25 1.25908 2.94697 0.504451 3.39073Z" fill="#F3F0E7"/>
<path fill-rule="evenodd" clip-rule="evenodd" d="M0.9375 20.973C0.946335 20.9811 0.957994 20.9904 0.972536 20.9998C1.00861 21.0232 1.04857 21.0386 1.08208 21.0449C1.10004 21.0484 1.11065 21.0483 1.11442 21.0481C2.1518 20.7475 3.72405 20.4716 6 20.4716C8.59461 20.4716 10.2747 20.8302 11.29 21.175C11.7217 21.3215 12.2783 21.3215 12.71 21.175C13.7253 20.8302 15.4054 20.4716 18 20.4716C20.2759 20.4716 21.8482 20.7475 22.8856 21.0481C22.8893 21.0483 22.9 21.0484 22.9179 21.0449C22.9514 21.0386 22.9914 21.0232 23.0275 20.9998C23.042 20.9904 23.0537 20.9812 23.0625 20.973V4.37132C23.0625 4.29597 23.0468 4.24512 23.0342 4.21935C23.0284 4.20739 23.0239 4.20209 23.0227 4.20075C23.0218 4.19982 23.0216 4.1996 23.0203 4.19886C22.4259 3.8493 20.9201 3.1875 18 3.1875C15.2155 3.1875 13.7175 3.78931 13.0699 4.14744C12.4251 4.50402 11.5749 4.50402 10.9301 4.14744C10.2825 3.78931 8.78448 3.1875 6 3.1875C3.0799 3.1875 1.57412 3.8493 0.979671 4.19886C0.97841 4.1996 0.978175 4.19982 0.977331 4.20075C0.976129 4.20209 0.97165 4.20739 0.9658 4.21935C0.953199 4.24512 0.9375 4.29597 0.9375 4.37132V20.973ZM0 4.37132C0 3.9735 0.161524 3.59239 0.504451 3.39073C1.25908 2.94697 2.93257 2.25 6 2.25C8.92425 2.25 10.5817 2.88343 11.3838 3.32703C11.7463 3.52749 12.2537 3.52749 12.6162 3.32703C13.4183 2.88343 15.0757 2.25 18 2.25C21.0674 2.25 22.7409 2.94697 23.4956 3.39073C23.8385 3.59239 24 3.9735 24 4.37132V21.0322C24 21.6489 23.2218 22.1219 22.6296 21.95C21.6887 21.6768 20.2043 21.4091 18 21.4091C15.4915 21.4091 13.9153 21.7558 13.0114 22.0627C12.3843 22.2756 11.6157 22.2756 10.9886 22.0627C10.0847 21.7558 8.50846 21.4091 6 21.4091C3.79575 21.4091 2.31131 21.6768 1.37039 21.95C0.778164 22.1219 0 21.6489 0 21.0322V4.37132Z" fill="#1D2E2E"/>
<path fill-rule="evenodd" clip-rule="evenodd" d="M12 3.50299C12.2589 3.50299 12.4688 3.71286 12.4688 3.97174L12.4688 21.75C12.4688 22.0089 12.2589 22.2188 12 22.2188C11.7411 22.2188 11.5313 22.0089 11.5313 21.75L11.5312 3.97174C11.5312 3.71286 11.7411 3.50299 12 3.50299Z" fill="#1D2E2E"/>
<path fill-rule="evenodd" clip-rule="evenodd" d="M6.00538 10.2189C5.36008 10.2264 4.69632 10.4379 4.00788 10.8914C3.7917 11.0339 3.50099 10.9741 3.35856 10.7579C3.21614 10.5417 3.27593 10.251 3.49212 10.1086C4.30368 9.5739 5.13992 9.29132 5.99462 9.28151C6.84878 9.2717 7.68447 9.53473 8.49495 10.0315C8.71568 10.1668 8.78494 10.4554 8.64966 10.6761C8.51437 10.8968 8.22577 10.9661 8.00505 10.8308C7.31553 10.4082 6.65122 10.2115 6.00538 10.2189Z" fill="#1D2E2E"/>
<path fill-rule="evenodd" clip-rule="evenodd" d="M18.0054 10.2189C17.3601 10.2264 16.6963 10.4379 16.0079 10.8914C15.7917 11.0339 15.501 10.9741 15.3586 10.7579C15.2161 10.5417 15.2759 10.251 15.4921 10.1086C16.3037 9.5739 17.1399 9.29132 17.9946 9.28151C18.8488 9.2717 19.6845 9.53473 20.495 10.0315C20.7157 10.1668 20.7849 10.4554 20.6497 10.6761C20.5144 10.8968 20.2258 10.9661 20.005 10.8308C19.3155 10.4082 18.6512 10.2115 18.0054 10.2189Z" fill="#1D2E2E"/>
<path fill-rule="evenodd" clip-rule="evenodd" d="M6.00538 14.6245C5.36008 14.6319 4.69632 14.8435 4.00788 15.297C3.7917 15.4394 3.50099 15.3796 3.35856 15.1634C3.21614 14.9473 3.27593 14.6566 3.49212 14.5141C4.30368 13.9795 5.13992 13.6969 5.99462 13.6871C6.84878 13.6773 7.68447 13.9403 8.49495 14.437C8.71568 14.5723 8.78494 14.8609 8.64966 15.0816C8.51437 15.3024 8.22577 15.3716 8.00505 15.2364C7.31553 14.8137 6.65122 14.6171 6.00538 14.6245Z" fill="#1D2E2E"/>
<path fill-rule="evenodd" clip-rule="evenodd" d="M18.0054 14.6245C17.3601 14.6319 16.6963 14.8435 16.0079 15.297C15.7917 15.4394 15.501 15.3796 15.3586 15.1634C15.2161 14.9473 15.2759 14.6566 15.4921 14.5141C16.3037 13.9795 17.1399 13.6969 17.9946 13.6871C18.8488 13.6773 19.6845 13.9403 20.495 14.437C20.7157 14.5723 20.7849 14.8609 20.6497 15.0816C20.5144 15.3024 20.2258 15.3716 20.005 15.2364C19.3155 14.8137 18.6512 14.6171 18.0054 14.6245Z" fill="#1D2E2E"/>
</svg>
