<svg width="24" height="24" viewBox="0 0 24 24" fill="none" xmlns="http://www.w3.org/2000/svg">
<g clip-path="url(#clip0_2934_6718)">
<path d="M19.5 13.9688C20.091 13.9688 20.4998 14.4362 20.4291 14.9282C20.2166 16.4052 19.6763 17.8224 18.8407 19.0731C17.7384 20.7227 16.1718 22.0084 14.3388 22.7677C12.5058 23.5269 10.4889 23.7256 8.543 23.3385C6.59713 22.9514 4.80973 21.9961 3.40683 20.5932C2.00394 19.1903 1.04856 17.4029 0.661498 15.457C0.27444 13.5111 0.473092 11.4942 1.23233 9.66121C1.99158 7.82824 3.27731 6.26157 4.92694 5.15932C6.1776 4.32365 7.59485 3.78338 9.0718 3.57093C9.56376 3.50017 10.0312 3.90905 10.0312 4.5V12.75C10.0312 13.4231 10.5769 13.9688 11.25 13.9688H19.5Z" fill="#FFB1E9" stroke="#1D2E2E" stroke-width="0.9375"/>
<path d="M13.2188 1.5C13.2188 0.910729 13.6857 0.497699 14.1833 0.564442C15.1064 0.688262 16.0116 0.931453 16.8758 1.28942C18.1838 1.83123 19.3724 2.62537 20.3735 3.62651C21.3746 4.62764 22.1688 5.81615 22.7106 7.1242C23.0685 7.98841 23.3117 8.89363 23.4356 9.81675C23.5023 10.3143 23.0893 10.7813 22.5 10.7813L14.25 10.7812C13.6805 10.7812 13.2188 10.3195 13.2188 9.75V1.5Z" fill="#FFB1E9" stroke="#1D2E2E" stroke-width="0.9375"/>
</g>
<defs>
<clipPath id="clip0_2934_6718">
<rect width="24" height="24" fill="white"/>
</clipPath>
</defs>
</svg>
