<svg width="24" height="24" viewBox="0 0 24 24" fill="none" xmlns="http://www.w3.org/2000/svg">
<path d="M17.2827 3.7972C17.4363 3.47771 17.3958 3.08516 17.1456 2.834L15.2351 0.915884C14.913 0.593701 14.3906 0.593701 14.0684 0.915884L0.863203 14.1211C0.570307 14.414 0.570311 14.8889 0.863209 15.1818L2.80593 17.1321C3.06535 17.3925 3.47671 17.4269 3.80381 17.2591C4.53096 16.8862 5.82433 16.4305 6.69686 17.3031C7.57259 18.1788 7.12061 19.4887 6.7534 20.2207C6.59002 20.5465 6.62621 20.9534 6.88438 21.2106L8.81815 23.1367C9.11104 23.4296 9.58592 23.4296 9.87881 23.1367L23.084 9.93149C23.4062 9.60931 23.4062 9.08695 23.084 8.76477L21.1827 6.87111C20.9338 6.62319 20.5458 6.58086 20.2278 6.73026C19.4862 7.07868 18.1353 7.52833 17.3035 6.69645C16.4746 5.86762 16.9284 4.53407 17.2827 3.7972Z" fill="#FFBC70"/>
<path fill-rule="evenodd" clip-rule="evenodd" d="M13.737 0.584426C14.2422 0.0791854 15.0614 0.079186 15.5666 0.584427L17.4777 2.50321C17.8878 2.91491 17.9322 3.52815 17.7052 4.0003C17.5384 4.34713 17.3619 4.80846 17.3157 5.26005C17.2701 5.70655 17.355 6.08505 17.6349 6.36499C17.9165 6.64658 18.3006 6.73354 18.7541 6.68942C19.2119 6.64489 19.6792 6.47011 20.0284 6.30601C20.499 6.0849 21.1056 6.13275 21.5135 6.53899L23.4148 8.43264C23.9201 8.93788 23.9207 9.75771 23.4155 10.2629L10.2103 23.4682C9.73433 23.9441 8.9627 23.9441 8.48674 23.4682C8.48673 23.4682 8.48676 23.4682 8.48674 23.4682L6.55358 21.5427C6.12973 21.1205 6.09528 20.4873 6.33441 20.0106C6.50612 19.6683 6.68284 19.2177 6.72452 18.7721C6.76523 18.3369 6.67617 17.9453 6.3654 17.6345C6.05626 17.3254 5.67002 17.2384 5.2417 17.2806C4.80221 17.3238 4.35749 17.502 4.0177 17.6762C3.5395 17.9215 2.89977 17.8905 2.47382 17.4629L0.531756 15.5132C0.53167 15.5131 0.531842 15.5133 0.531756 15.5132C0.0560539 15.0373 0.0558766 14.2655 0.531747 13.7896L13.737 0.584426ZM14.9034 1.2471C14.7643 1.10821 14.5389 1.10829 14.3999 1.24734L1.19466 14.4526C1.08482 14.5624 1.08482 14.7405 1.19466 14.8503L3.13803 16.8013C3.23092 16.8946 3.41393 16.9323 3.58991 16.842C3.97728 16.6434 4.54282 16.4073 5.14993 16.3476C5.76822 16.2867 6.46493 16.4082 7.02832 16.9716C7.59328 17.5366 7.71609 18.2378 7.65794 18.8594C7.60076 19.4708 7.36789 20.0412 7.17239 20.4309C7.08475 20.6056 7.12269 20.7863 7.21518 20.8785L9.14895 22.8046C9.25879 22.9144 9.43752 22.9151 9.54735 22.8053L22.7526 9.60004C22.8916 9.46102 22.8917 9.2357 22.7529 9.09655C22.7528 9.09644 22.753 9.09666 22.7529 9.09655L20.8519 7.20324C20.762 7.11363 20.5925 7.07682 20.4271 7.15452C20.0348 7.33883 19.4559 7.56308 18.8449 7.62252C18.2296 7.68236 17.5223 7.57819 16.972 7.0279C16.4231 6.47902 16.3205 5.77633 16.3831 5.16463C16.4452 4.55801 16.6727 3.98413 16.8602 3.59409C16.9404 3.42728 16.9037 3.25541 16.8135 3.16479L14.9034 1.2471C14.9035 1.24718 14.9034 1.24702 14.9034 1.2471Z" fill="#1D2E2E"/>
<path d="M11.1445 8.63448C11.3276 8.45142 11.6244 8.45142 11.8074 8.63448L15.3872 12.2142C15.5702 12.3973 15.5702 12.6941 15.3872 12.8771C15.2041 13.0602 14.9073 13.0602 14.7242 12.8771L11.1445 9.29739C10.9615 9.11433 10.9615 8.81754 11.1445 8.63448Z" fill="#1D2E2E"/>
</svg>
