<svg width="24" height="24" viewBox="0 0 24 24" fill="none" xmlns="http://www.w3.org/2000/svg">
<path d="M0.976478 16.8878C-0.398517 9.9405 4.9179 3.46875 12 3.46875C19.0821 3.46875 24.3985 9.9405 23.0235 16.8878C22.8339 17.8461 22.6104 18.7684 22.174 19.4516C21.7625 20.0957 21.1614 20.5312 20.1299 20.5312H3.87009C2.8386 20.5312 2.23746 20.0957 1.82605 19.4516C1.38965 18.7684 1.16614 17.8461 0.976478 16.8878Z" fill="#D2B6F6" stroke="#1D2E2E" stroke-width="0.9375"/>
<path d="M4.30344 13.5C4.26257 9.82248 8.08645 6.75 12 6.75C15.9256 6.75 19.4705 9.31724 19.611 13.5" stroke="#1D2E2E" stroke-width="0.9375" stroke-linecap="round"/>
<path d="M11.1394 15.2603L13.4617 13.2737L11.7596 15.8063C11.6518 15.9666 11.5072 16.09 11.3753 16.1455C11.2548 16.1962 11.1728 16.1838 11.1021 16.1315C11.0117 16.0644 10.9345 15.9804 10.8754 15.8843C10.8343 15.8176 10.8247 15.7377 10.8663 15.6254C10.9109 15.5053 11.0085 15.3723 11.1394 15.2603Z" fill="#1D2E2E" stroke="#1D2E2E" stroke-width="0.75"/>
</svg>
