<svg width="24" height="24" viewBox="0 0 24 24" fill="none" xmlns="http://www.w3.org/2000/svg">
<path d="M11.0919 0.690726C11.6285 0.282569 12.3715 0.282569 12.9081 0.690726L14.1824 1.65999C14.4955 1.89817 14.8897 2.00379 15.28 1.95409L16.8682 1.75183C17.537 1.66666 18.1804 2.03815 18.4411 2.65993L19.06 4.13649C19.2121 4.49933 19.5007 4.78789 19.8635 4.93998L21.3401 5.55893C21.9618 5.81956 22.3333 6.46301 22.2482 7.1318L22.0459 8.72001C21.9962 9.11028 22.1018 9.50446 22.34 9.8176L23.3093 11.0919C23.7174 11.6285 23.7174 12.3715 23.3093 12.9081L22.34 14.1824C22.1018 14.4955 21.9962 14.8897 22.0459 15.28L22.2482 16.8682C22.3333 17.537 21.9618 18.1804 21.3401 18.4411L19.8635 19.06C19.5007 19.2121 19.2121 19.5007 19.06 19.8635L18.4411 21.3401C18.1804 21.9618 17.537 22.3333 16.8682 22.2482L15.28 22.0459C14.8897 21.9962 14.4955 22.1018 14.1824 22.34L12.9081 23.3093C12.3715 23.7174 11.6285 23.7174 11.0919 23.3093L9.8176 22.34C9.50446 22.1018 9.11028 21.9962 8.72001 22.0459L7.1318 22.2482C6.46301 22.3333 5.81956 21.9618 5.55893 21.3401L4.93998 19.8635C4.78789 19.5007 4.49933 19.2121 4.13649 19.06L2.65993 18.4411C2.03815 18.1804 1.66666 17.537 1.75183 16.8682L1.95409 15.28C2.00379 14.8897 1.89817 14.4955 1.65999 14.1824L0.690726 12.9081C0.282569 12.3715 0.282569 11.6285 0.690726 11.0919L1.65999 9.8176C1.89817 9.50446 2.00379 9.11028 1.95409 8.72001L1.75183 7.1318C1.66666 6.46301 2.03815 5.81956 2.65993 5.55893L4.13649 4.93998C4.49933 4.78789 4.78789 4.49933 4.93998 4.13649L5.55893 2.65993C5.81956 2.03815 6.46301 1.66666 7.1318 1.75183L8.72001 1.95409C9.11028 2.00379 9.50446 1.89817 9.8176 1.65999L11.0919 0.690726Z" fill="#F7D64F"/>
<path fill-rule="evenodd" clip-rule="evenodd" d="M13.6148 2.40617L12.3405 1.4369C12.1393 1.28384 11.8607 1.28384 11.6595 1.4369L10.3852 2.40617C9.87632 2.79321 9.23577 2.96485 8.60157 2.88408L7.01337 2.68182C6.76257 2.64988 6.52128 2.78919 6.42354 3.02236L5.8046 4.49892C5.55744 5.08853 5.08853 5.55744 4.49891 5.8046L3.02236 6.42354C2.78919 6.52128 2.64988 6.76257 2.68182 7.01337L2.88408 8.60157C2.96485 9.23577 2.79321 9.87632 2.40617 10.3852L1.4369 11.6595C1.28384 11.8607 1.28384 12.1393 1.4369 12.3405L2.40617 13.6148C2.79321 14.1237 2.96485 14.7642 2.88408 15.3984L2.68182 16.9866C2.64988 17.2374 2.78919 17.4787 3.02236 17.5765L4.49892 18.1954C5.08853 18.4426 5.55744 18.9115 5.8046 19.5011L6.42354 20.9776C6.52128 21.2108 6.76257 21.3501 7.01337 21.3182L8.60157 21.1159C9.23577 21.0352 9.87632 21.2068 10.3852 21.5938L11.6595 22.5631C11.8607 22.7162 12.1393 22.7162 12.3405 22.5631L13.6148 21.5938C14.1237 21.2068 14.7642 21.0352 15.3984 21.1159L16.9866 21.3182C17.2374 21.3501 17.4787 21.2108 17.5765 20.9776L18.1954 19.5011C18.4426 18.9115 18.9115 18.4426 19.5011 18.1954L20.9776 17.5765C21.2108 17.4787 21.3501 17.2374 21.3182 16.9866L21.1159 15.3984C21.0352 14.7642 21.2068 14.1237 21.5938 13.6148L22.5631 12.3405C22.7162 12.1393 22.7162 11.8607 22.5631 11.6595L21.5938 10.3852C21.2068 9.87632 21.0352 9.23577 21.1159 8.60157L21.3182 7.01336C21.3501 6.76257 21.2108 6.52128 20.9776 6.42354L19.5011 5.8046C18.9115 5.55744 18.4426 5.08853 18.1954 4.49892L17.5765 3.02236C17.4787 2.78919 17.2374 2.64988 16.9866 2.68182L15.3984 2.88408C14.7642 2.96485 14.1237 2.79321 13.6148 2.40617ZM12.9081 0.690726C12.3715 0.282569 11.6285 0.282569 11.0919 0.690726L9.8176 1.65999C9.50446 1.89817 9.11028 2.00379 8.72001 1.95409L7.1318 1.75183C6.46301 1.66666 5.81956 2.03815 5.55893 2.65993L4.93998 4.13649C4.78789 4.49933 4.49933 4.78789 4.13649 4.93998L2.65993 5.55893C2.03815 5.81956 1.66666 6.46301 1.75183 7.1318L1.95409 8.72001C2.00379 9.11028 1.89817 9.50446 1.65999 9.8176L0.690726 11.0919C0.282569 11.6285 0.282569 12.3715 0.690726 12.9081L1.65999 14.1824C1.89817 14.4955 2.00379 14.8897 1.95409 15.28L1.75183 16.8682C1.66666 17.537 2.03815 18.1804 2.65993 18.4411L4.13649 19.06C4.49933 19.2121 4.78789 19.5007 4.93998 19.8635L5.55893 21.3401C5.81956 21.9618 6.46301 22.3333 7.1318 22.2482L8.72001 22.0459C9.11028 21.9962 9.50446 22.1018 9.8176 22.34L11.0919 23.3093C11.6285 23.7174 12.3715 23.7174 12.9081 23.3093L14.1824 22.34C14.4955 22.1018 14.8897 21.9962 15.28 22.0459L16.8682 22.2482C17.537 22.3333 18.1804 21.9618 18.4411 21.3401L19.06 19.8635C19.2121 19.5007 19.5007 19.2121 19.8635 19.06L21.3401 18.4411C21.9618 18.1804 22.3333 17.537 22.2482 16.8682L22.0459 15.28C21.9962 14.8897 22.1018 14.4955 22.34 14.1824L23.3093 12.9081C23.7174 12.3715 23.7174 11.6285 23.3093 11.0919L22.34 9.8176C22.1018 9.50446 21.9962 9.11028 22.0459 8.72001L22.2482 7.1318C22.3333 6.46301 21.9618 5.81956 21.3401 5.55893L19.8635 4.93998C19.5007 4.78789 19.2121 4.49933 19.06 4.13649L18.4411 2.65993C18.1804 2.03815 17.537 1.66666 16.8682 1.75183L15.28 1.95409C14.8897 2.00379 14.4955 1.89817 14.1824 1.65999L12.9081 0.690726Z" fill="#1D2E2E"/>
<path d="M11.3274 6.32059C11.6026 5.76316 12.3974 5.76316 12.6726 6.32059L13.8093 8.62384C13.9185 8.8452 14.1297 8.99863 14.374 9.03412L16.9158 9.40347C17.5309 9.49285 17.7766 10.2488 17.3314 10.6827L15.4922 12.4756C15.3154 12.6479 15.2347 12.8961 15.2765 13.1394L15.7107 15.6709C15.8157 16.2836 15.1727 16.7508 14.6224 16.4616L12.349 15.2663C12.1305 15.1515 11.8695 15.1515 11.651 15.2663L9.37755 16.4616C8.82733 16.7508 8.18426 16.2836 8.28934 15.6709L8.72353 13.1394C8.76526 12.8961 8.6846 12.6479 8.50783 12.4756L6.66858 10.6827C6.22344 10.2488 6.46908 9.49285 7.08424 9.40347L9.62602 9.03412C9.87031 8.99863 10.0815 8.8452 10.1907 8.62384L11.3274 6.32059Z" fill="white"/>
<path fill-rule="evenodd" clip-rule="evenodd" d="M12 7.07618L11.0314 9.03875C10.7856 9.5368 10.3105 9.88201 9.76083 9.96188L7.59502 10.2766L9.16222 11.8042C9.55994 12.1919 9.74143 12.7505 9.64754 13.2979L9.27757 15.455L11.2147 14.4365C11.7063 14.1781 12.2937 14.1781 12.7853 14.4365L14.7224 15.455L14.3525 13.2979C14.2586 12.7505 14.4401 12.1919 14.8378 11.8042L16.405 10.2766L14.2392 9.96188C13.6895 9.88201 13.2144 9.5368 12.9686 9.03875L12 7.07618ZM12.6726 6.32059C12.3974 5.76316 11.6026 5.76316 11.3274 6.32059L10.1907 8.62384C10.0815 8.8452 9.87031 8.99863 9.62602 9.03412L7.08424 9.40347C6.46908 9.49285 6.22344 10.2488 6.66858 10.6827L8.50783 12.4756C8.6846 12.6479 8.76526 12.8961 8.72353 13.1394L8.28934 15.6709C8.18426 16.2836 8.82733 16.7508 9.37755 16.4616L11.651 15.2663C11.8695 15.1515 12.1305 15.1515 12.349 15.2663L14.6224 16.4616C15.1727 16.7508 15.8157 16.2836 15.7107 15.6709L15.2765 13.1394C15.2347 12.8961 15.3154 12.6479 15.4922 12.4756L17.3314 10.6827C17.7766 10.2488 17.5309 9.49285 16.9158 9.40347L14.374 9.03412C14.1297 8.99863 13.9185 8.8452 13.8093 8.62384L12.6726 6.32059Z" fill="#1D2E2E"/>
</svg>
