<svg width="24" height="24" viewBox="0 0 24 24" fill="none" xmlns="http://www.w3.org/2000/svg">
<path d="M7.5 23.1562H2.85C2.3633 23.1562 1.96875 22.7617 1.96875 22.275V7.96911C1.96875 7.60879 2.15681 7.2746 2.4648 7.08761L11.4648 1.62332C11.7937 1.42366 12.2063 1.42366 12.5352 1.62332L21.5352 7.08761C21.8432 7.2746 22.0312 7.60879 22.0312 7.96911V22.275C22.0312 22.7617 21.6367 23.1562 21.15 23.1562H16.5C16.3447 23.1562 16.2188 23.0303 16.2188 22.875V17.25C16.2188 14.92 14.33 13.0312 12 13.0312C9.67005 13.0312 7.78125 14.92 7.78125 17.25V22.875C7.78125 23.0303 7.65533 23.1562 7.5 23.1562Z" fill="#A0C3FA" stroke="#1D2E2E" stroke-width="0.9375" stroke-linecap="round"/>
</svg>
