<svg width="24" height="24" viewBox="0 0 24 24" fill="none" xmlns="http://www.w3.org/2000/svg">
<path d="M11.694 4.25989L12 4.52356L12.306 4.25989C13.4168 3.30267 14.8858 2.71875 16.5 2.71875C19.986 2.71875 22.7812 5.43508 22.7812 8.74876C22.7812 12.5648 20.988 15.3746 18.834 17.3818C16.6733 19.3953 14.1687 20.5807 12.8199 21.1221C12.2913 21.3343 11.7087 21.3343 11.1801 21.1221C9.83132 20.5807 7.3267 19.3953 5.16603 17.3818C3.01204 15.3746 1.21875 12.5648 1.21875 8.74876C1.21875 5.43508 4.01404 2.71875 7.5 2.71875C9.11423 2.71875 10.5832 3.30267 11.694 4.25989Z" fill="#FF9E9E" stroke="#1D2E2E" stroke-width="0.9375"/>
<path d="M18 11.9H16.7568C16.522 11.9 16.3136 11.7624 16.2393 11.5583L15.1602 8.59178C15.0042 8.16315 14.357 8.12904 14.1484 8.53847L11.3865 13.9616C11.1935 14.3404 10.6084 14.3477 10.4043 13.9737L9.42352 12.1763C9.33112 12.007 9.14225 11.9 8.93565 11.9H6" stroke="#1D2E2E" stroke-width="0.9375" stroke-linecap="round" stroke-linejoin="round"/>
</svg>
