<svg width="24" height="24" viewBox="0 0 24 24" fill="none" xmlns="http://www.w3.org/2000/svg">
<path d="M17.6633 14.2938C17.0687 14.8571 16.6715 16.8113 16.4299 18.75C16.3824 19.1313 16.3409 19.512 16.3051 19.8814C16.1452 21.5305 14.7819 22.875 13.125 22.875H10.875C9.21815 22.875 7.85477 21.5305 7.69493 19.8814C7.65913 19.512 7.61762 19.1313 7.5701 18.75C7.32848 16.8113 6.93127 14.8571 6.33666 14.2938C4.74395 12.785 3.75 10.6469 3.75 8.27586C3.75 3.70523 7.44365 0 12 0C16.5563 0 20.25 3.70523 20.25 8.27586C20.25 10.6469 19.2561 12.785 17.6633 14.2938Z" fill="#F7D64F"/>
<path fill-rule="evenodd" clip-rule="evenodd" d="M8.45474 18.2812C8.3373 17.4075 8.18602 16.5286 7.99432 15.775C7.88568 15.3479 7.75892 14.9403 7.60883 14.5878C7.46612 14.2526 7.26881 13.8855 6.98141 13.6132C5.56815 12.2744 4.6875 10.3794 4.6875 8.27586C4.6875 4.22023 7.96418 0.9375 12 0.9375C16.0358 0.9375 19.3125 4.22023 19.3125 8.27586C19.3125 10.3794 18.4319 12.2744 17.0186 13.6132C16.7312 13.8855 16.5339 14.2526 16.3912 14.5878C16.2411 14.9403 16.1143 15.3479 16.0057 15.775C15.814 16.5286 15.6627 17.4075 15.5453 18.2812H8.45474ZM7.62563 19.2188C7.60812 19.0631 7.58962 18.9066 7.5701 18.75C7.32848 16.8113 6.93127 14.8571 6.33666 14.2938C4.74395 12.785 3.75 10.6469 3.75 8.27586C3.75 3.70523 7.44365 0 12 0C16.5563 0 20.25 3.70523 20.25 8.27586C20.25 10.6469 19.2561 12.785 17.6633 14.2938C17.0687 14.8571 16.6715 16.8113 16.4299 18.75C16.4104 18.9066 16.3919 19.0631 16.3744 19.2188C16.3492 19.4421 16.3262 19.6637 16.3051 19.8814C16.1452 21.5305 14.7819 22.875 13.125 22.875H10.875C9.21815 22.875 7.85477 21.5305 7.69493 19.8814C7.67383 19.6637 7.65075 19.4421 7.62563 19.2188ZM15.4311 19.2188C15.4099 19.4116 15.3902 19.6028 15.3719 19.7909C15.2545 21.0025 14.2572 21.9375 13.125 21.9375H10.875C9.74282 21.9375 8.74549 21.0025 8.62806 19.7909C8.60983 19.6028 8.59012 19.4116 8.56891 19.2188H15.4311Z" fill="#1D2E2E"/>
<path fill-rule="evenodd" clip-rule="evenodd" d="M12.3047 16.468C12.0458 16.468 11.8359 16.2581 11.8359 15.9992V14.7646L10.4762 13.9488C10.036 13.6847 10.0558 13.0401 10.5115 12.8036L12.7676 11.6324L10.5434 10.5727C10.0709 10.3475 10.0392 9.68684 10.4881 9.41752L11.8359 8.60883V7.5C11.8359 7.24112 12.0458 7.03125 12.3047 7.03125C12.5635 7.03125 12.7734 7.24112 12.7734 7.5V8.76807C12.7734 8.99859 12.6525 9.2122 12.4548 9.3308L11.4198 9.95178L13.681 11.0292C14.1703 11.2623 14.1821 11.9544 13.7011 12.2041L11.3901 13.4038L12.4548 14.0427C12.6525 14.1613 12.7734 14.3749 12.7734 14.6054V15.9992C12.7734 16.2581 12.5635 16.468 12.3047 16.468Z" fill="#1D2E2E"/>
</svg>
