<svg width="24" height="24" viewBox="0 0 24 24" fill="none" xmlns="http://www.w3.org/2000/svg">
<path d="M0.75 2.25C0.75 1.42157 1.42157 0.75 2.25 0.75H12C12.8284 0.75 13.5 1.42157 13.5 2.25V9.75C13.5 10.5784 12.8284 11.25 12 11.25H2.25C1.42157 11.25 0.75 10.5784 0.75 9.75V2.25Z" fill="#D2B6F6"/>
<path fill-rule="evenodd" clip-rule="evenodd" d="M12 1.6875H2.25C1.93934 1.6875 1.6875 1.93934 1.6875 2.25V9.75C1.6875 10.0607 1.93934 10.3125 2.25 10.3125H12C12.3107 10.3125 12.5625 10.0607 12.5625 9.75V2.25C12.5625 1.93934 12.3107 1.6875 12 1.6875ZM2.25 0.75C1.42157 0.75 0.75 1.42157 0.75 2.25V9.75C0.75 10.5784 1.42157 11.25 2.25 11.25H12C12.8284 11.25 13.5 10.5784 13.5 9.75V2.25C13.5 1.42157 12.8284 0.75 12 0.75H2.25Z" fill="#1D2E2E"/>
<path d="M10.5 14.25C10.5 13.4216 11.1716 12.75 12 12.75H21.75C22.5784 12.75 23.25 13.4216 23.25 14.25V21.75C23.25 22.5784 22.5784 23.25 21.75 23.25H12C11.1716 23.25 10.5 22.5784 10.5 21.75V14.25Z" fill="#D2B6F6"/>
<path fill-rule="evenodd" clip-rule="evenodd" d="M21.75 13.6875H12C11.6893 13.6875 11.4375 13.9393 11.4375 14.25V21.75C11.4375 22.0607 11.6893 22.3125 12 22.3125H21.75C22.0607 22.3125 22.3125 22.0607 22.3125 21.75V14.25C22.3125 13.9393 22.0607 13.6875 21.75 13.6875ZM12 12.75C11.1716 12.75 10.5 13.4216 10.5 14.25V21.75C10.5 22.5784 11.1716 23.25 12 23.25H21.75C22.5784 23.25 23.25 22.5784 23.25 21.75V14.25C23.25 13.4216 22.5784 12.75 21.75 12.75H12Z" fill="#1D2E2E"/>
<path d="M15 2.25C15 1.42157 15.6716 0.75 16.5 0.75H21.75C22.5784 0.75 23.25 1.42157 23.25 2.25V9.75C23.25 10.5784 22.5784 11.25 21.75 11.25H16.5C15.6716 11.25 15 10.5784 15 9.75V2.25Z" fill="#D2B6F6"/>
<path fill-rule="evenodd" clip-rule="evenodd" d="M21.75 1.6875H16.5C16.1893 1.6875 15.9375 1.93934 15.9375 2.25V9.75C15.9375 10.0607 16.1893 10.3125 16.5 10.3125H21.75C22.0607 10.3125 22.3125 10.0607 22.3125 9.75V2.25C22.3125 1.93934 22.0607 1.6875 21.75 1.6875ZM16.5 0.75C15.6716 0.75 15 1.42157 15 2.25V9.75C15 10.5784 15.6716 11.25 16.5 11.25H21.75C22.5784 11.25 23.25 10.5784 23.25 9.75V2.25C23.25 1.42157 22.5784 0.75 21.75 0.75H16.5Z" fill="#1D2E2E"/>
<path d="M0.75 14.25C0.75 13.4216 1.42157 12.75 2.25 12.75H7.5C8.32843 12.75 9 13.4216 9 14.25V21.75C9 22.5784 8.32843 23.25 7.5 23.25H2.25C1.42157 23.25 0.75 22.5784 0.75 21.75V14.25Z" fill="#D2B6F6"/>
<path fill-rule="evenodd" clip-rule="evenodd" d="M7.5 13.6875H2.25C1.93934 13.6875 1.6875 13.9393 1.6875 14.25V21.75C1.6875 22.0607 1.93934 22.3125 2.25 22.3125H7.5C7.81066 22.3125 8.0625 22.0607 8.0625 21.75V14.25C8.0625 13.9393 7.81066 13.6875 7.5 13.6875ZM2.25 12.75C1.42157 12.75 0.75 13.4216 0.75 14.25V21.75C0.75 22.5784 1.42157 23.25 2.25 23.25H7.5C8.32843 23.25 9 22.5784 9 21.75V14.25C9 13.4216 8.32843 12.75 7.5 12.75H2.25Z" fill="#1D2E2E"/>
</svg>
