<svg width="24" height="24" viewBox="0 0 24 24" fill="none" xmlns="http://www.w3.org/2000/svg">
<path d="M13.6746 8.40382C13.2383 8.2454 12.8177 8.60106 12.8177 9.06522V10.8621C12.8177 11.0096 12.6553 11.0993 12.5305 11.0209L4.88499 6.21839C4.77008 6.14621 4.76752 5.97966 4.88016 5.90398L12.5256 0.767368C12.6502 0.683683 12.8177 0.772944 12.8177 0.923005V2.54716C12.8177 2.93714 13.1173 3.25894 13.5026 3.31867C15.1188 3.56911 16.6551 4.22102 17.9662 5.22506C19.6786 6.5365 20.9112 8.37563 21.4734 10.458C22.0355 12.5404 21.8959 14.7499 21.0761 16.745C20.2563 18.74 18.802 20.4094 16.9381 21.4948C15.0742 22.5803 12.9046 23.0214 10.7648 22.7499C8.62508 22.4783 6.63439 21.5094 5.10067 19.9928C3.56694 18.4763 2.57564 16.4966 2.28008 14.36C2.01888 12.4718 2.31392 10.5541 3.12072 8.83891C3.29702 8.46409 3.75763 8.33877 4.11789 8.54318L7.08048 10.2241C7.44074 10.4285 7.56103 10.8851 7.41386 11.2723C7.12282 12.038 7.0267 12.8684 7.14004 13.6877C7.28782 14.756 7.78347 15.7458 8.55033 16.5041C9.3172 17.2624 10.3125 17.7469 11.3824 17.8826C12.4523 18.0184 13.5371 17.7978 14.469 17.2551C15.401 16.7124 16.1281 15.8777 16.538 14.8802C16.9479 13.8827 17.0178 12.7779 16.7367 11.7367C16.4556 10.6955 15.8393 9.77596 14.9831 9.12024C14.5833 8.81409 14.1417 8.57342 13.6746 8.40382Z" fill="#FFB69D"/>
<path fill-rule="evenodd" clip-rule="evenodd" d="M12.349 1.45079L5.50085 6.05169L12.349 10.3533V9.06522C12.349 8.34381 13.0315 7.67158 13.8346 7.96322C14.3463 8.14902 14.8301 8.41269 15.2681 8.74809C16.2061 9.46646 16.8813 10.4739 17.1892 11.6145C17.4972 12.7552 17.4207 13.9655 16.9716 15.0584C16.5225 16.1512 15.7259 17.0656 14.7049 17.6602C13.684 18.2548 12.4955 18.4964 11.3234 18.3477C10.1513 18.1989 9.06087 17.6682 8.22075 16.8374C7.38062 16.0067 6.83761 14.9223 6.67571 13.752C6.55154 12.8544 6.65685 11.9446 6.97569 11.1057C7.05662 10.8928 6.97152 10.7013 6.84915 10.6318L3.88657 8.95087C3.74242 8.86908 3.59481 8.93228 3.54488 9.03843C2.77663 10.6717 2.49568 12.4978 2.74441 14.2958C3.02585 16.3303 3.9698 18.2154 5.43025 19.6595C6.89071 21.1036 8.7863 22.0263 10.8238 22.2848C12.8614 22.5434 14.9273 22.1234 16.7022 21.0898C18.477 20.0562 19.8619 18.4666 20.6425 16.5668C21.4231 14.6671 21.5561 12.5631 21.0208 10.5802C20.4855 8.59728 19.3118 6.84601 17.6812 5.59722C16.4328 4.64114 14.9698 4.02037 13.4309 3.78189C12.8373 3.6899 12.349 3.18822 12.349 2.54716V1.45079ZM12.2642 0.378278C12.7002 0.0853798 13.2865 0.397796 13.2865 0.923005V2.54716C13.2865 2.68607 13.3972 2.82799 13.5744 2.85545C15.2678 3.11786 16.8775 3.8009 18.2512 4.85291C20.0454 6.227 21.3369 8.15399 21.9259 10.3358C22.5149 12.5177 22.3686 14.8328 21.5096 16.9232C20.6507 19.0135 19.1269 20.7626 17.174 21.8999C15.221 23.0372 12.9478 23.4994 10.7058 23.2149C8.46385 22.9304 6.37807 21.9151 4.77108 20.3261C3.16409 18.7371 2.12543 16.6629 1.81575 14.4243C1.54207 12.4459 1.85121 10.4365 2.69655 8.63939C2.99923 7.9959 3.77284 7.80845 4.34922 8.13548L7.3118 9.81643C7.90996 10.1558 8.06543 10.8774 7.85203 11.4388C7.58879 12.1314 7.50186 12.8825 7.60437 13.6235C7.73803 14.5897 8.18633 15.485 8.87992 16.1708C9.57351 16.8566 10.4738 17.2948 11.4414 17.4176C12.4091 17.5404 13.3902 17.3409 14.2331 16.8501C15.076 16.3592 15.7337 15.6043 16.1045 14.702C16.4752 13.7998 16.5383 12.8006 16.2841 11.8589C16.0299 10.9172 15.4725 10.0855 14.6981 9.4924C14.3365 9.21549 13.9371 8.99782 13.5146 8.84443C13.4615 8.82513 13.4168 8.83415 13.3745 8.86778C13.327 8.90562 13.2865 8.97536 13.2865 9.06522V10.8621C13.2865 11.3782 12.7182 11.6924 12.2811 11.4178L4.63565 6.61533C4.23348 6.3627 4.22453 5.77975 4.61875 5.51489L12.2642 0.378278Z" fill="#1D2E2E"/>
</svg>
