<svg width="24" height="24" viewBox="0 0 24 24" fill="none" xmlns="http://www.w3.org/2000/svg">
<path fill-rule="evenodd" clip-rule="evenodd" d="M8.66854 8.66854C8.8516 8.48549 9.1484 8.48549 9.33146 8.66854L22.8315 22.1685C23.0145 22.3516 23.0145 22.6484 22.8315 22.8315C22.6484 23.0145 22.3516 23.0145 22.1685 22.8315L8.66854 9.33146C8.48549 9.1484 8.48549 8.8516 8.66854 8.66854Z" fill="#1D2E2E"/>
<path d="M20.25 10.5C20.25 15.8848 15.8848 20.25 10.5 20.25C5.11522 20.25 0.75 15.8848 0.75 10.5C0.75 5.11522 5.11522 0.75 10.5 0.75C15.8848 0.75 20.25 5.11522 20.25 10.5Z" fill="#D0E1FD"/>
<path fill-rule="evenodd" clip-rule="evenodd" d="M10.5 19.3125C15.367 19.3125 19.3125 15.367 19.3125 10.5C19.3125 5.63299 15.367 1.6875 10.5 1.6875C5.63299 1.6875 1.6875 5.63299 1.6875 10.5C1.6875 15.367 5.63299 19.3125 10.5 19.3125ZM10.5 20.25C15.8848 20.25 20.25 15.8848 20.25 10.5C20.25 5.11522 15.8848 0.75 10.5 0.75C5.11522 0.75 0.75 5.11522 0.75 10.5C0.75 15.8848 5.11522 20.25 10.5 20.25Z" fill="#1D2E2E"/>
<path fill-rule="evenodd" clip-rule="evenodd" d="M10.0312 5.71875C10.0312 5.45987 10.2411 5.25 10.5 5.25C11.1894 5.25 11.8721 5.3858 12.5091 5.64963C13.146 5.91347 13.7248 6.30018 14.2123 6.78769C14.6998 7.2752 15.0865 7.85395 15.3504 8.49091C15.6142 9.12787 15.75 9.81056 15.75 10.5C15.75 10.7589 15.5401 10.9688 15.2812 10.9688C15.0224 10.9688 14.8125 10.7589 14.8125 10.5C14.8125 9.93367 14.701 9.37289 14.4842 8.84968C14.2675 8.32646 13.9499 7.85105 13.5494 7.4506C13.1489 7.05015 12.6735 6.73249 12.1503 6.51577C11.6271 6.29905 11.0663 6.1875 10.5 6.1875C10.2411 6.1875 10.0312 5.97763 10.0312 5.71875Z" fill="#1D2E2E"/>
</svg>
