<svg width="24" height="24" viewBox="0 0 24 24" fill="none" xmlns="http://www.w3.org/2000/svg">
<rect x="0.46875" y="1.96875" width="23.0625" height="20.0625" rx="1.03125" fill="#D9D9D9" stroke="#1D2E2E" stroke-width="0.9375"/>
<path d="M9.75 16.9829V12.1309C9.75 11.4019 10.5355 10.9431 11.1705 11.3013L15.1403 13.5407C15.7612 13.8909 15.7914 14.774 15.1959 15.1659L11.2261 17.7785C10.5928 18.1953 9.75 17.7411 9.75 16.9829Z" fill="white" stroke="#1D2E2E" stroke-width="0.9375"/>
<path d="M0.46875 3C0.46875 2.43046 0.930456 1.96875 1.5 1.96875H22.5C23.0695 1.96875 23.5312 2.43046 23.5312 3V6.75C23.5312 6.90533 23.4053 7.03125 23.25 7.03125H0.75C0.59467 7.03125 0.46875 6.90533 0.46875 6.75V3Z" fill="white" stroke="#1D2E2E" stroke-width="0.9375"/>
<path d="M6.67641 7.03125L8.57484 1.96875H17.3236L15.4252 7.03125H6.67641Z" stroke="#1D2E2E" stroke-width="0.9375"/>
</svg>
