<svg width="24" height="24" viewBox="0 0 24 24" fill="none" xmlns="http://www.w3.org/2000/svg">
<rect x="4.21875" y="4.21875" width="15.5625" height="19.3125" rx="1.03125" fill="#D0E1FD" stroke="#1D2E2E" stroke-width="0.9375"/>
<path d="M6.46875 4.33861C6.46875 3.39221 7.23596 2.625 8.18236 2.625H8.9505C9.14483 2.625 9.3251 2.52369 9.42614 2.35769L9.8355 1.68518C10.2953 0.929787 11.1157 0.46875 12 0.46875C12.8843 0.46875 13.7047 0.929787 14.1645 1.68519L14.5739 2.35769C14.5739 2.35769 14.5739 2.35769 14.5739 2.3577C14.6749 2.5237 14.8552 2.625 15.0495 2.625H15.8176C16.764 2.625 17.5312 3.39221 17.5312 4.33861V5.25C17.5312 5.81954 17.0695 6.28125 16.5 6.28125H7.5C6.93046 6.28125 6.46875 5.81954 6.46875 5.25V4.33861Z" fill="white" stroke="#1D2E2E" stroke-width="0.9375"/>
<path d="M8.25 16.5L9.70986 17.9599C10.1221 18.3721 10.8065 18.3121 11.1408 17.8346L15.75 11.25" stroke="#1D2E2E" stroke-width="0.9375" stroke-linecap="round"/>
</svg>
