<svg width="24" height="24" viewBox="0 0 24 24" fill="none" xmlns="http://www.w3.org/2000/svg">
<path d="M15 16.5C15 20.6421 11.6421 24 7.5 24C3.35786 24 0 20.6421 0 16.5C0 12.3579 3.35786 9 7.5 9C11.6421 9 15 12.3579 15 16.5Z" fill="#D0E1FD"/>
<path fill-rule="evenodd" clip-rule="evenodd" d="M7.5 23.0625C11.1244 23.0625 14.0625 20.1244 14.0625 16.5C14.0625 12.8756 11.1244 9.9375 7.5 9.9375C3.87563 9.9375 0.9375 12.8756 0.9375 16.5C0.9375 20.1244 3.87563 23.0625 7.5 23.0625ZM7.5 24C11.6421 24 15 20.6421 15 16.5C15 12.3579 11.6421 9 7.5 9C3.35786 9 0 12.3579 0 16.5C0 20.6421 3.35786 24 7.5 24Z" fill="#1D2E2E"/>
<path fill-rule="evenodd" clip-rule="evenodd" d="M5.83301 13.5311C6.09189 13.5311 6.30176 13.741 6.30176 13.9999V15.6665C6.30176 15.9254 6.09189 16.1353 5.83301 16.1353C5.57412 16.1353 5.36426 15.9254 5.36426 15.6665V13.9999C5.36426 13.741 5.57412 13.5311 5.83301 13.5311Z" fill="#1D2E2E"/>
<path fill-rule="evenodd" clip-rule="evenodd" d="M9.16699 13.5311C9.42588 13.5311 9.63574 13.741 9.63574 13.9999V15.6665C9.63574 15.9254 9.42588 16.1353 9.16699 16.1353C8.90811 16.1353 8.69824 15.9254 8.69824 15.6665V13.9999C8.69824 13.741 8.90811 13.5311 9.16699 13.5311Z" fill="#1D2E2E"/>
<path fill-rule="evenodd" clip-rule="evenodd" d="M4.66879 20.1647C4.48573 19.9817 4.48573 19.6849 4.66879 19.5018L5.00024 19.8333C4.66879 19.5018 4.66862 19.502 4.66879 19.5018L4.67024 19.5003L4.67202 19.4986L4.67653 19.4942L4.68941 19.4819C4.69971 19.4723 4.71345 19.4597 4.73063 19.4447C4.76498 19.4146 4.81318 19.3746 4.87524 19.328C4.99931 19.235 5.17939 19.1154 5.41561 18.9973C5.8896 18.7603 6.58593 18.5312 7.50024 18.5312C8.41456 18.5312 9.11089 18.7603 9.58488 18.9973C9.8211 19.1154 10.0012 19.235 10.1252 19.328C10.1873 19.3746 10.2355 19.4146 10.2699 19.4447C10.287 19.4597 10.3008 19.4723 10.3111 19.4819L10.324 19.4942L10.3285 19.4986L10.3302 19.5003L10.331 19.5011C10.3312 19.5013 10.3317 19.5018 10.0151 19.8184L10.331 19.5011C10.5141 19.6842 10.5148 19.9817 10.3317 20.1647C10.1495 20.3469 9.8546 20.3478 9.67134 20.1672C9.67143 20.1673 9.67164 20.1675 9.67134 20.1672L9.66994 20.1659L9.6691 20.165C9.66895 20.1649 9.66879 20.1647 10.0002 19.8333L9.6691 20.165M4.66879 20.1647C4.85174 20.3477 5.1483 20.3478 5.33139 20.165L4.66879 20.1647ZM9.67134 20.1672L9.66994 20.1659C9.66722 20.1633 9.66137 20.158 9.65251 20.1502C9.63478 20.1347 9.60484 20.1096 9.56274 20.078C9.47848 20.0148 9.34605 19.9261 9.16561 19.8358C8.80627 19.6562 8.25259 19.4687 7.50024 19.4687C6.74789 19.4687 6.19422 19.6562 5.83488 19.8358C5.65444 19.9261 5.52201 20.0148 5.43774 20.078C5.39565 20.1096 5.36571 20.1347 5.34798 20.1502C5.33912 20.158 5.33333 20.1633 5.33061 20.1659C5.32941 20.167 5.32881 20.1676 5.32881 20.1676L5.32969 20.1667L5.33061 20.1659L5.33139 20.165" fill="#1D2E2E"/>
<path d="M24 7.5C24 11.6421 20.6421 15 16.5 15C12.3579 15 9 11.6421 9 7.5C9 3.35786 12.3579 0 16.5 0C20.6421 0 24 3.35786 24 7.5Z" fill="#FFB69D"/>
<path fill-rule="evenodd" clip-rule="evenodd" d="M16.5 14.0625C20.1244 14.0625 23.0625 11.1244 23.0625 7.5C23.0625 3.87563 20.1244 0.9375 16.5 0.9375C12.8756 0.9375 9.9375 3.87563 9.9375 7.5C9.9375 11.1244 12.8756 14.0625 16.5 14.0625ZM16.5 15C20.6421 15 24 11.6421 24 7.5C24 3.35786 20.6421 0 16.5 0C12.3579 0 9 3.35786 9 7.5C9 11.6421 12.3579 15 16.5 15Z" fill="#1D2E2E"/>
<path fill-rule="evenodd" clip-rule="evenodd" d="M14.833 4.53113C15.0919 4.53113 15.3018 4.74099 15.3018 4.99988V6.66654C15.3018 6.92543 15.0919 7.13529 14.833 7.13529C14.5741 7.13529 14.3643 6.92543 14.3643 6.66654V4.99988C14.3643 4.74099 14.5741 4.53113 14.833 4.53113Z" fill="#1D2E2E"/>
<path fill-rule="evenodd" clip-rule="evenodd" d="M18.167 4.53113C18.4259 4.53113 18.6357 4.74099 18.6357 4.99988V6.66654C18.6357 6.92543 18.4259 7.13529 18.167 7.13529C17.9081 7.13529 17.6982 6.92543 17.6982 6.66654V4.99988C17.6982 4.74099 17.9081 4.53113 18.167 4.53113Z" fill="#1D2E2E"/>
<path fill-rule="evenodd" clip-rule="evenodd" d="M19.3312 9.66867C19.5143 9.85172 19.5143 10.1485 19.3312 10.3316L18.9998 10.0001C19.3312 10.3316 19.3314 10.3314 19.3312 10.3316L19.3298 10.333L19.328 10.3348L19.3235 10.3392L19.3106 10.3515C19.3003 10.3611 19.2865 10.3737 19.2694 10.3887C19.235 10.4188 19.1868 10.4588 19.1248 10.5053C19.0007 10.5984 18.8206 10.7179 18.5844 10.8361C18.1104 11.073 17.4141 11.3022 16.4998 11.3022C15.5854 11.3022 14.8891 11.073 14.4151 10.8361C14.1789 10.7179 13.9988 10.5984 13.8748 10.5053C13.8127 10.4588 13.7645 10.4188 13.7301 10.3887C13.713 10.3737 13.6992 10.3611 13.6889 10.3515L13.676 10.3392L13.6715 10.3348L13.6698 10.333L13.669 10.3323C13.6688 10.3321 13.6683 10.3316 13.9849 10.015L13.669 10.3323C13.4859 10.1492 13.4852 9.85172 13.6683 9.66866C13.8505 9.48646 14.1454 9.48561 14.3287 9.66613C14.3284 9.66585 14.3286 9.66604 14.3287 9.66613L14.3301 9.66752L14.3309 9.66835C14.3311 9.66851 14.3312 9.66867 13.9998 10.0001L14.3309 9.66835M19.3312 9.66867C19.1483 9.48571 18.8517 9.48561 18.6686 9.66835L19.3312 9.66867ZM14.3287 9.66613L14.3301 9.66752C14.3328 9.67007 14.3386 9.67541 14.3475 9.68316C14.3652 9.69868 14.3952 9.72376 14.4373 9.75533C14.5215 9.81853 14.6539 9.90731 14.8344 9.99753C15.1937 10.1772 15.7474 10.3647 16.4998 10.3647C17.2521 10.3647 17.8058 10.1772 18.1651 9.99753C18.3456 9.90731 18.478 9.81853 18.5623 9.75533C18.6044 9.72376 18.6343 9.69868 18.652 9.68316C18.6609 9.67541 18.6667 9.67006 18.6694 9.66751C18.6706 9.66639 18.6712 9.66581 18.6712 9.66581L18.6703 9.66667L18.6694 9.66751L18.6686 9.66835" fill="#1D2E2E"/>
</svg>
