<svg width="24" height="24" viewBox="0 0 24 24" fill="none" xmlns="http://www.w3.org/2000/svg">
<path d="M0 18.75C0 19.5784 0.671573 20.25 1.5 20.25H22.5C23.3284 20.25 24 19.5784 24 18.75V5.25C24 4.42157 23.3284 3.75 22.5 3.75H1.5C0.671573 3.75 0 4.42157 0 5.25V18.75Z" fill="#FFD8F4"/>
<path fill-rule="evenodd" clip-rule="evenodd" d="M22.0913 6.46189L13.4336 15.6607C12.6563 16.4866 11.3437 16.4866 10.5664 15.6607L1.90401 6.45696L0.9375 5.39976V18.75C0.9375 19.0607 1.18934 19.3125 1.5 19.3125H22.5C22.8107 19.3125 23.0625 19.0607 23.0625 18.75V5.39976L22.0913 6.46189ZM22.4434 4.6875L21.4063 5.82186L12.751 15.0182C12.3438 15.4508 11.6562 15.4508 11.249 15.0182L2.59367 5.82183L1.55657 4.6875H22.4434ZM0 5.25C0 4.42157 0.671573 3.75 1.5 3.75H22.5C23.3284 3.75 24 4.42157 24 5.25V18.75C24 19.5784 23.3284 20.25 22.5 20.25H1.5C0.671573 20.25 0 19.5784 0 18.75V5.25Z" fill="#1D2E2E"/>
</svg>
