<svg width="24" height="24" viewBox="0 0 24 24" fill="none" xmlns="http://www.w3.org/2000/svg">
<path d="M24 12C24 18.6274 18.6274 24 12 24C5.37258 24 8.19589e-08 18.6274 8.19589e-08 12C8.19589e-08 5.37258 5.37258 0 12 0C18.6274 0 24 5.37258 24 12Z" fill="#ACE4D7"/>
<path fill-rule="evenodd" clip-rule="evenodd" d="M12 23.0625C18.1096 23.0625 23.0625 18.1096 23.0625 12C23.0625 5.89035 18.1096 0.9375 12 0.9375C5.89035 0.9375 0.9375 5.89035 0.9375 12C0.9375 18.1096 5.89035 23.0625 12 23.0625ZM12 24C18.6274 24 24 18.6274 24 12C24 5.37258 18.6274 0 12 0C5.37258 0 8.19589e-08 5.37258 8.19589e-08 12C8.19589e-08 18.6274 5.37258 24 12 24Z" fill="#1D2E2E"/>
<path fill-rule="evenodd" clip-rule="evenodd" d="M14.8534 20.1095C15.7404 18.0821 16.3125 15.2157 16.3125 12C16.3125 8.78432 15.7404 5.9179 14.8534 3.89049C14.4093 2.87539 13.9047 2.11278 13.3919 1.61703C12.8836 1.12565 12.4147 0.9375 12 0.9375C11.5853 0.9375 11.1164 1.12565 10.6081 1.61703C10.0953 2.11278 9.59069 2.87539 9.14659 3.89049C8.25959 5.9179 7.6875 8.78432 7.6875 12C7.6875 15.2157 8.25959 18.0821 9.14659 20.1095C9.59069 21.1246 10.0953 21.8872 10.6081 22.383C11.1164 22.8743 11.5853 23.0625 12 23.0625C12.4147 23.0625 12.8836 22.8743 13.3919 22.383C13.9047 21.8872 14.4093 21.1246 14.8534 20.1095ZM12 24C14.8995 24 17.25 18.6274 17.25 12C17.25 5.37258 14.8995 0 12 0C9.1005 0 6.75 5.37258 6.75 12C6.75 18.6274 9.1005 24 12 24Z" fill="#1D2E2E"/>
<path fill-rule="evenodd" clip-rule="evenodd" d="M24 12H8.19589e-08L0 11.0625L24 11.0625V12Z" fill="#1D2E2E"/>
</svg>
